<?plantuml 1.2026.0?><svg xmlns="http://www.w3.org/2000/svg" xmlns:xlink="http://www.w3.org/1999/xlink" contentStyleType="text/css" data-diagram-type="ACTIVITY" height="1395px" preserveAspectRatio="none" style="width:554px;height:1395px;background:#FFFFFF;" version="1.1" viewBox="0 0 554 1395" width="554px" zoomAndPan="magnify"><title>The gate loop</title><defs/><g><g class="title" data-source-line="27"><text fill="#000000" font-family="'Helvetica'" font-size="18" font-weight="bold" lengthAdjust="spacing" textLength="122.1293" x="214.6038" y="39.2419">The gate loop</text></g><ellipse cx="162.1476" cy="65.5158" fill="#222222" rx="10" ry="10" style="stroke:#222222;stroke-width:1;"/><rect fill="#E3F2FD" height="37.706" rx="12.5" ry="12.5" style="stroke:#546E7A;stroke-width:0.5;" width="231.8742" x="46.2105" y="95.5158"/><text fill="#000000" font-family="'Helvetica'" font-size="13" lengthAdjust="spacing" textLength="211.8742" x="56.2105" y="119.4129">afriend run spec.md "--mode gate"</text><rect fill="#ECEFF1" height="37.706" rx="12.5" ry="12.5" style="stroke:#546E7A;stroke-width:0.5;" width="193.1992" x="65.548" y="153.2219"/><text fill="#000000" font-family="'Helvetica'" font-size="13" lengthAdjust="spacing" textLength="173.1992" x="75.548" y="177.1189">critique, then cross-examine</text><rect fill="#C8E6C9" height="37.706" rx="12.5" ry="12.5" style="stroke:#546E7A;stroke-width:0.5;" width="133.1131" x="95.5911" y="269.1071"/><text fill="#000000" font-family="'Helvetica'" font-size="13" lengthAdjust="spacing" textLength="113.1131" x="105.5911" y="293.0041">exit 0 &#8212; gate clear</text><ellipse cx="162.1476" cy="342.288" fill="none" rx="11" ry="11" style="stroke:#222222;stroke-width:1;"/><ellipse cx="162.1476" cy="342.288" fill="#222222" rx="6" ry="6" style="stroke:#222222;stroke-width:1;"/><polygon fill="#ECEFF1" points="95.7751,210.9279,228.5201,210.9279,240.5201,227.272,228.5201,243.6161,95.7751,243.6161,83.7751,227.272,95.7751,210.9279" style="stroke:#546E7A;stroke-width:0.5;"/><text fill="#000000" font-family="'Helvetica'" font-size="11" lengthAdjust="spacing" textLength="13.4529" x="166.1476" y="255.375">no</text><text fill="#000000" font-family="'Helvetica'" font-size="12" lengthAdjust="spacing" textLength="129.7569" x="95.7751" y="223.756">any non-advisory claim</text><text fill="#000000" font-family="'Helvetica'" font-size="12" lengthAdjust="spacing" textLength="132.745" x="95.7751" y="240.1001">not cleared by its state?</text><text fill="#000000" font-family="'Helvetica'" font-size="11" lengthAdjust="spacing" textLength="17.0829" x="240.5201" y="224.049">yes</text><path d="M300.6912,385.288 L300.6912,435.3203 L280.6912,439.3203 L300.6912,443.3203 L300.6912,493.3527 A0,0 0 0 0 300.6912,493.3527 L542.3368,493.3527 A0,0 0 0 0 542.3368,493.3527 L542.3368,395.288 L532.3368,385.288 L300.6912,385.288 A0,0 0 0 0 300.6912,385.288" fill="#FFF8E1" style="stroke:#F9A825;stroke-width:0.5;"/><path d="M532.3368,385.288 L532.3368,395.288 L542.3368,395.288 L532.3368,385.288" fill="#FFF8E1" style="stroke:#F9A825;stroke-width:0.5;"/><text fill="#000000" font-family="'Helvetica'" font-size="12" lengthAdjust="spacing" textLength="183.4333" x="306.6912" y="403.1161">Only settled-refuted clears on its</text><text fill="#000000" font-family="'Helvetica'" font-size="12" lengthAdjust="spacing" textLength="220.6456" x="306.6912" y="419.4602">own. superseded is exempt because its</text><text fill="#000000" font-family="'Helvetica'" font-size="12" lengthAdjust="spacing" textLength="173.6893" x="306.6912" y="435.8043">successor carries the question.</text><text fill="#000000" font-family="'Helvetica'" font-size="12" lengthAdjust="spacing" textLength="216.8775" x="306.6912" y="452.1484">discarded and incomplete both need a</text><text fill="#000000" font-family="'Helvetica'" font-size="12" lengthAdjust="spacing" textLength="211.2495" x="306.6912" y="468.4925">Resolution: no working assessment is</text><text fill="#000000" font-family="'Helvetica'" font-size="12" lengthAdjust="spacing" textLength="60.8044" x="306.6912" y="484.8367">not a pass.</text><rect fill="#FFCDD2" height="37.706" rx="12.5" ry="12.5" style="stroke:#546E7A;stroke-width:0.5;" width="237.0872" x="43.604" y="420.4673"/><text fill="#000000" font-family="'Helvetica'" font-size="13" lengthAdjust="spacing" textLength="217.0872" x="53.604" y="444.3644">exit 1 &#8212; names each blocking claim</text><rect fill="#ECEFF1" height="37.706" rx="12.5" ry="12.5" style="stroke:#546E7A;stroke-width:0.5;" width="197.8272" x="63.234" y="557.3527"/><text fill="#000000" font-family="'Helvetica'" font-size="13" lengthAdjust="spacing" textLength="177.8272" x="73.234" y="581.2497">a human changes something</text><rect fill="#E3F2FD" height="90.8241" rx="12.5" ry="12.5" style="stroke:#546E7A;stroke-width:0.5;" width="175.6101" x="74.3426" y="615.0587"/><text fill="#000000" font-family="'Helvetica'" font-size="13" lengthAdjust="spacing" textLength="141.8301" x="84.3426" y="638.9557">afriend resolve RUN_ID</text><text fill="#000000" font-family="'Helvetica'" font-size="13" lengthAdjust="spacing" textLength="105.8851" x="84.3426" y="656.6617">claim = c-0001@1</text><text fill="#000000" font-family="'Helvetica'" font-size="13" lengthAdjust="spacing" textLength="111.1891" x="84.3426" y="674.3678">disposition = fixed</text><text fill="#000000" font-family="'Helvetica'" font-size="13" lengthAdjust="spacing" textLength="155.6101" x="84.3426" y="692.0738">evidence = src/auth.py:38</text><rect fill="#FFCDD2" height="37.706" rx="12.5" ry="12.5" style="stroke:#546E7A;stroke-width:0.5;" width="119.5931" x="102.3511" y="775.3737"/><text fill="#000000" font-family="'Helvetica'" font-size="13" lengthAdjust="spacing" textLength="99.5931" x="112.3511" y="799.2707">exit 2 &#8212; refused</text><ellipse cx="162.1476" cy="850.7267" fill="none" rx="11" ry="11" style="stroke:#222222;stroke-width:1;"/><ellipse cx="162.1476" cy="850.7267" fill="#222222" rx="6" ry="6" style="stroke:#222222;stroke-width:1;"/><polygon fill="#ECEFF1" points="85.0531,725.8828,239.2422,725.8828,251.2422,737.8828,239.2422,749.8828,85.0531,749.8828,73.0531,737.8828,85.0531,725.8828" style="stroke:#546E7A;stroke-width:0.5;"/><text fill="#000000" font-family="'Helvetica'" font-size="11" lengthAdjust="spacing" textLength="13.4529" x="166.1476" y="761.6417">no</text><text fill="#000000" font-family="'Helvetica'" font-size="12" lengthAdjust="spacing" textLength="154.1891" x="85.0531" y="742.5388">evidence names a location?</text><text fill="#000000" font-family="'Helvetica'" font-size="11" lengthAdjust="spacing" textLength="17.0829" x="251.2422" y="734.6598">yes</text><rect fill="#ECEFF1" height="55.412" rx="12.5" ry="12.5" style="stroke:#546E7A;stroke-width:0.5;" width="225.0622" x="49.6165" y="918.7267"/><text fill="#000000" font-family="'Helvetica'" font-size="13" lengthAdjust="spacing" textLength="182.6892" x="59.6165" y="942.6237">compare that location against</text><text fill="#000000" font-family="'Helvetica'" font-size="13" lengthAdjust="spacing" textLength="205.0622" x="59.6165" y="960.3298">the run's frozen copy or snapshot</text><rect fill="#FFCDD2" height="37.706" rx="12.5" ry="12.5" style="stroke:#546E7A;stroke-width:0.5;" width="119.5931" x="102.3511" y="1043.6297"/><text fill="#000000" font-family="'Helvetica'" font-size="13" lengthAdjust="spacing" textLength="99.5931" x="112.3511" y="1067.5267">exit 2 &#8212; refused</text><ellipse cx="162.1476" cy="1118.9827" fill="none" rx="11" ry="11" style="stroke:#222222;stroke-width:1;"/><ellipse cx="162.1476" cy="1118.9827" fill="#222222" rx="6" ry="6" style="stroke:#222222;stroke-width:1;"/><polygon fill="#ECEFF1" points="66.567,994.1388,257.7283,994.1388,269.7283,1006.1388,257.7283,1018.1388,66.567,1018.1388,54.567,1006.1388,66.567,994.1388" style="stroke:#546E7A;stroke-width:0.5;"/><text fill="#000000" font-family="'Helvetica'" font-size="11" lengthAdjust="spacing" textLength="17.0829" x="166.1476" y="1029.8977">yes</text><text fill="#000000" font-family="'Helvetica'" font-size="12" lengthAdjust="spacing" textLength="191.1613" x="66.567" y="1010.7948">fixed, but nothing changed there?</text><text fill="#000000" font-family="'Helvetica'" font-size="11" lengthAdjust="spacing" textLength="13.4529" x="269.7283" y="1002.9158">no</text><rect fill="#ECEFF1" height="55.412" rx="12.5" ry="12.5" style="stroke:#546E7A;stroke-width:0.5;" width="302.2953" x="11" y="1171.9827"/><text fill="#000000" font-family="'Helvetica'" font-size="13" lengthAdjust="spacing" textLength="112.1511" x="21" y="1195.8797">append resolution</text><text fill="#000000" font-family="'Helvetica'" font-size="13" lengthAdjust="spacing" textLength="282.2953" x="21" y="1213.5857">verified = changed | unchanged | unverifiable</text><polygon fill="#ECEFF1" points="162.1476,513.3527,174.1476,525.3527,162.1476,537.3527,150.1476,525.3527,162.1476,513.3527" style="stroke:#546E7A;stroke-width:0.5;"/><polygon fill="#ECEFF1" points="105.0152,1247.3947,219.28,1247.3947,231.28,1259.3947,219.28,1271.3947,105.0152,1271.3947,93.0152,1259.3947,105.0152,1247.3947" style="stroke:#546E7A;stroke-width:0.5;"/><text fill="#000000" font-family="'Helvetica'" font-size="11" lengthAdjust="spacing" textLength="13.4529" x="166.1476" y="1283.1537">no</text><text fill="#000000" font-family="'Helvetica'" font-size="12" lengthAdjust="spacing" textLength="114.2648" x="105.0152" y="1264.0508">claims still blocking?</text><text fill="#000000" font-family="'Helvetica'" font-size="11" lengthAdjust="spacing" textLength="17.0829" x="231.28" y="1256.1718">yes</text><rect fill="#C8E6C9" height="37.706" rx="12.5" ry="12.5" style="stroke:#546E7A;stroke-width:0.5;" width="133.1131" x="95.5911" y="1304.6537"/><text fill="#000000" font-family="'Helvetica'" font-size="13" lengthAdjust="spacing" textLength="113.1131" x="105.5911" y="1328.5507">exit 0 &#8212; gate clear</text><ellipse cx="162.1476" cy="1373.3597" fill="none" rx="11" ry="11" style="stroke:#222222;stroke-width:1;"/><ellipse cx="162.1476" cy="1373.3597" fill="#222222" rx="6" ry="6" style="stroke:#222222;stroke-width:1;"/><line style="stroke:#37474F;stroke-width:1;" x1="162.1476" x2="162.1476" y1="75.5158" y2="95.5158"/><polygon fill="#37474F" points="158.1476,85.5158,162.1476,95.5158,166.1476,85.5158,162.1476,89.5158" style="stroke:#37474F;stroke-width:1;"/><line style="stroke:#37474F;stroke-width:1;" x1="162.1476" x2="162.1476" y1="133.2219" y2="153.2219"/><polygon fill="#37474F" points="158.1476,143.2219,162.1476,153.2219,166.1476,143.2219,162.1476,147.2219" style="stroke:#37474F;stroke-width:1;"/><line style="stroke:#37474F;stroke-width:1;" x1="162.1476" x2="162.1476" y1="306.8131" y2="331.288"/><polygon fill="#37474F" points="158.1476,321.288,162.1476,331.288,166.1476,321.288,162.1476,325.288" style="stroke:#37474F;stroke-width:1;"/><line style="stroke:#37474F;stroke-width:1;" x1="162.1476" x2="162.1476" y1="243.6161" y2="269.1071"/><polygon fill="#37474F" points="158.1476,259.1071,162.1476,269.1071,166.1476,259.1071,162.1476,263.1071" style="stroke:#37474F;stroke-width:1;"/><line style="stroke:#37474F;stroke-width:1;" x1="240.5201" x2="252.5201" y1="227.272" y2="227.272"/><polygon fill="#37474F" points="248.5201,301.288,252.5201,311.288,256.5201,301.288,252.5201,305.288" style="stroke:#37474F;stroke-width:1;"/><line style="stroke:#37474F;stroke-width:1;" x1="252.5201" x2="252.5201" y1="227.272" y2="375.288"/><line style="stroke:#37474F;stroke-width:1;" x1="252.5201" x2="162.1476" y1="375.288" y2="375.288"/><line style="stroke:#37474F;stroke-width:1;" x1="162.1476" x2="162.1476" y1="375.288" y2="420.4673"/><polygon fill="#37474F" points="158.1476,410.4673,162.1476,420.4673,166.1476,410.4673,162.1476,414.4673" style="stroke:#37474F;stroke-width:1;"/><line style="stroke:#37474F;stroke-width:1;" x1="162.1476" x2="162.1476" y1="190.9279" y2="210.9279"/><polygon fill="#37474F" points="158.1476,200.9279,162.1476,210.9279,166.1476,200.9279,162.1476,204.9279" style="stroke:#37474F;stroke-width:1;"/><line style="stroke:#37474F;stroke-width:1;" x1="162.1476" x2="162.1476" y1="595.0587" y2="615.0587"/><polygon fill="#37474F" points="158.1476,605.0587,162.1476,615.0587,166.1476,605.0587,162.1476,609.0587" style="stroke:#37474F;stroke-width:1;"/><line style="stroke:#37474F;stroke-width:1;" x1="162.1476" x2="162.1476" y1="813.0797" y2="839.7267"/><polygon fill="#37474F" points="158.1476,829.7267,162.1476,839.7267,166.1476,829.7267,162.1476,833.7267" style="stroke:#37474F;stroke-width:1;"/><line style="stroke:#37474F;stroke-width:1;" x1="162.1476" x2="162.1476" y1="749.8828" y2="775.3737"/><polygon fill="#37474F" points="158.1476,765.3737,162.1476,775.3737,166.1476,765.3737,162.1476,769.3737" style="stroke:#37474F;stroke-width:1;"/><line style="stroke:#37474F;stroke-width:1;" x1="251.2422" x2="263.2422" y1="737.8828" y2="737.8828"/><polygon fill="#37474F" points="259.2422,809.7267,263.2422,819.7267,267.2422,809.7267,263.2422,813.7267" style="stroke:#37474F;stroke-width:1;"/><line style="stroke:#37474F;stroke-width:1;" x1="263.2422" x2="263.2422" y1="737.8828" y2="883.7267"/><line style="stroke:#37474F;stroke-width:1;" x1="263.2422" x2="162.1476" y1="883.7267" y2="883.7267"/><line style="stroke:#37474F;stroke-width:1;" x1="162.1476" x2="162.1476" y1="883.7267" y2="918.7267"/><polygon fill="#37474F" points="158.1476,908.7267,162.1476,918.7267,166.1476,908.7267,162.1476,912.7267" style="stroke:#37474F;stroke-width:1;"/><line style="stroke:#37474F;stroke-width:1;" x1="162.1476" x2="162.1476" y1="705.8828" y2="725.8828"/><polygon fill="#37474F" points="158.1476,715.8828,162.1476,725.8828,166.1476,715.8828,162.1476,719.8828" style="stroke:#37474F;stroke-width:1;"/><line style="stroke:#37474F;stroke-width:1;" x1="162.1476" x2="162.1476" y1="1081.3357" y2="1107.9827"/><polygon fill="#37474F" points="158.1476,1097.9827,162.1476,1107.9827,166.1476,1097.9827,162.1476,1101.9827" style="stroke:#37474F;stroke-width:1;"/><line style="stroke:#37474F;stroke-width:1;" x1="162.1476" x2="162.1476" y1="1018.1388" y2="1043.6297"/><polygon fill="#37474F" points="158.1476,1033.6297,162.1476,1043.6297,166.1476,1033.6297,162.1476,1037.6297" style="stroke:#37474F;stroke-width:1;"/><line style="stroke:#37474F;stroke-width:1;" x1="269.7283" x2="281.7283" y1="1006.1388" y2="1006.1388"/><polygon fill="#37474F" points="277.7283,1077.9827,281.7283,1087.9827,285.7283,1077.9827,281.7283,1081.9827" style="stroke:#37474F;stroke-width:1;"/><line style="stroke:#37474F;stroke-width:1;" x1="281.7283" x2="281.7283" y1="1006.1388" y2="1151.9827"/><line style="stroke:#37474F;stroke-width:1;" x1="281.7283" x2="162.1476" y1="1151.9827" y2="1151.9827"/><line style="stroke:#37474F;stroke-width:1;" x1="162.1476" x2="162.1476" y1="1151.9827" y2="1171.9827"/><polygon fill="#37474F" points="158.1476,1161.9827,162.1476,1171.9827,166.1476,1161.9827,162.1476,1165.9827" style="stroke:#37474F;stroke-width:1;"/><line style="stroke:#37474F;stroke-width:1;" x1="162.1476" x2="162.1476" y1="974.1388" y2="994.1388"/><polygon fill="#37474F" points="158.1476,984.1388,162.1476,994.1388,166.1476,984.1388,162.1476,988.1388" style="stroke:#37474F;stroke-width:1;"/><line style="stroke:#37474F;stroke-width:1;" x1="162.1476" x2="162.1476" y1="537.3527" y2="557.3527"/><polygon fill="#37474F" points="158.1476,547.3527,162.1476,557.3527,166.1476,547.3527,162.1476,551.3527" style="stroke:#37474F;stroke-width:1;"/><line style="stroke:#37474F;stroke-width:1;" x1="231.28" x2="325.2953" y1="1259.3947" y2="1259.3947"/><polygon fill="#37474F" points="321.2953,902.3737,325.2953,892.3737,329.2953,902.3737,325.2953,898.3737" style="stroke:#37474F;stroke-width:1;"/><line style="stroke:#37474F;stroke-width:1;" x1="325.2953" x2="325.2953" y1="525.3527" y2="1259.3947"/><line style="stroke:#37474F;stroke-width:1;" x1="325.2953" x2="174.1476" y1="525.3527" y2="525.3527"/><polygon fill="#37474F" points="184.1476,521.3527,174.1476,525.3527,184.1476,529.3527,180.1476,525.3527" style="stroke:#37474F;stroke-width:1;"/><line style="stroke:#37474F;stroke-width:1;" x1="162.1476" x2="162.1476" y1="1227.3947" y2="1247.3947"/><polygon fill="#37474F" points="158.1476,1237.3947,162.1476,1247.3947,166.1476,1237.3947,162.1476,1241.3947" style="stroke:#37474F;stroke-width:1;"/><line style="stroke:#37474F;stroke-width:1;" x1="162.1476" x2="162.1476" y1="458.1734" y2="513.3527"/><polygon fill="#37474F" points="158.1476,503.3527,162.1476,513.3527,166.1476,503.3527,162.1476,507.3527" style="stroke:#37474F;stroke-width:1;"/><line style="stroke:#37474F;stroke-width:1;" x1="162.1476" x2="162.1476" y1="1271.3947" y2="1304.6537"/><polygon fill="#37474F" points="158.1476,1294.6537,162.1476,1304.6537,166.1476,1294.6537,162.1476,1298.6537" style="stroke:#37474F;stroke-width:1;"/><line style="stroke:#37474F;stroke-width:1;" x1="162.1476" x2="162.1476" y1="1342.3597" y2="1362.3597"/><polygon fill="#37474F" points="158.1476,1352.3597,162.1476,1362.3597,166.1476,1352.3597,162.1476,1356.3597" style="stroke:#37474F;stroke-width:1;"/><?plantuml-src bLJRRXCn47tVhnYr3qsb9ctIMqY5e2HPmGj8KDuYeOazcxMwQo-sDsbQaFW8lf0lOUnjasqfGkHfuxcTENDczk0g9rYW9oYCgKPWQtq0bfmfbXG-kY8dSTs3Auk29E02bNO-sGDdnI5cLf6MXyAK9Mhf3ZcwLwsX8qhvXR_tN9DwRb6BVF-0mxQkJGrsFm1-Q6hMNXdj-AsN9EvQwGejbZ17SRsmfjPoR0fZOJUDlvQ7f0phmgT6-_TO4koy9SxjbS2Tvxq-gLk2_d7Bw7AKPgNq0Z8i7BKibzQQrNtbu_EJyvFqgN6RiTyoNIbVqDOqRBU4mgkbyckuIm3U62l9tbSuFJcRdb-6rwTTJyVJDEspPQAmD5e-7_PW_6jqk_sD-_Pna7nluTI6ntVt71eUm73QVue-VN4v79m-gX8I9ZvmyLXhJ8T7wvDaTtgS3jB9w5vDGOBWAXAzKi9EjriQsKJjN2GZOPLNNskMfiz9Wx36kIxTOAaqNII9og23UismTHVbKZbZro0ALELCSolyIMXPnlCrAE-00NXwjT_awcYppy1tnyFfsVZ5Y6wKXoFuzUDd0pc6Nh23yuoTM2BGMPFRJnYoohYBD1rF9eCchX_ZD4lH0Q78OLuOSHt45S4mqaYiLOlSSyeFkbY38yySoQwbhFQCCHPqO7I0oavcfNlWwegi8ybsnQblgAmyp4bWpNWQFrSBGOux1u6M6NMXFM3EN5Yk7dj8vTWKSeJ5KvftiYeexAdnEMWA1dRxkDd84HCAAsDZ1-WSfoz9UuR0Re5NX8gVUu6BA9aaiLGHXjv627dDAmyYHxrWDCwKv7FE5CZyO_RDLO2Fdzz_UJUPwKWNl0JHFJewwh_kpvXiLncd0Yn-pzGDoPccfPAa1V5Bl4krp_c8Z8w7p3H0KCN6enaAiWG5XYHFnW_mQ923ECWm4YRz8jhZ_05Q2k0_ZGQusy0bIunpej_KU3YRCnr6qHp6p9hRe633zv9dvJHMBZT-0pXsTW3psWT6ywYToA0CUErMjlSG_XDuq-qMDrOLFRh2CxqagpB5zLvkAd-3MhU_6nUS5xnypSHXbIlUz4uSNDWmLHGRzJDcLcr476KJKIJ_sBW8-pS0?></g></svg>